<svg width="316" height="40" viewBox="0 0 316 40" fill="none" xmlns="http://www.w3.org/2000/svg">
<path d="M50.5173 4.08274V30.2967H47.073V4.08274H50.5173Z" fill="#6200EA"/>
<path d="M64.0334 9.31049C66.5567 9.31049 68.6006 10.0752 70.1651 11.6047C71.7296 13.1091 72.5118 15.2904 72.5118 18.1488V30.2967H69.1053V18.6377C69.1053 16.5817 68.588 15.0146 67.5534 13.9365C66.5189 12.8333 65.1058 12.2817 63.3142 12.2817C61.4974 12.2817 60.0465 12.8458 58.9615 13.9741C57.9017 15.1024 57.3718 16.7447 57.3718 18.901V30.2967H53.9274V9.68658H57.3718V12.6201C58.0531 11.5671 58.9741 10.7522 60.1348 10.1755C61.3208 9.59883 62.6203 9.31049 64.0334 9.31049Z" fill="#6200EA"/>
<path d="M84.1185 12.5073H79.7657V30.2967H76.3214V12.5073H73.634V9.68658H76.3214V8.21981C76.3214 5.91308 76.9143 4.23318 78.1003 3.18011C79.3115 2.10196 81.2419 1.56289 83.8914 1.56289V4.42123C82.3774 4.42123 81.305 4.72211 80.6741 5.32386C80.0685 5.90054 79.7657 6.86586 79.7657 8.21981V9.68658H84.1185V12.5073Z" fill="#6200EA"/>
<path d="M87.4532 6.33932C86.7971 6.33932 86.2419 6.11366 85.7877 5.66235C85.3335 5.21103 85.1064 4.65942 85.1064 4.00752C85.1064 3.35562 85.3335 2.80401 85.7877 2.35269C86.2419 1.90138 86.7971 1.67572 87.4532 1.67572C88.084 1.67572 88.6139 1.90138 89.0429 2.35269C89.4971 2.80401 89.7242 3.35562 89.7242 4.00752C89.7242 4.65942 89.4971 5.21103 89.0429 5.66235C88.6139 6.11366 88.084 6.33932 87.4532 6.33932ZM89.1186 9.68658V30.2967H85.6742V9.68658H89.1186Z" fill="#6200EA"/>
<path d="M102.635 9.31049C105.158 9.31049 107.202 10.0752 108.766 11.6047C110.331 13.1091 111.113 15.2904 111.113 18.1488V30.2967H107.707V18.6377C107.707 16.5817 107.189 15.0146 106.155 13.9365C105.12 12.8333 103.707 12.2817 101.915 12.2817C100.099 12.2817 98.6477 12.8458 97.5627 13.9741C96.5029 15.1024 95.973 16.7447 95.973 18.901V30.2967H92.5286V9.68658H95.973V12.6201C96.6543 11.5671 97.5753 10.7522 98.736 10.1755C99.922 9.59883 101.222 9.31049 102.635 9.31049Z" fill="#6200EA"/>
<path d="M116.058 6.33932C115.402 6.33932 114.847 6.11366 114.393 5.66235C113.938 5.21103 113.711 4.65942 113.711 4.00752C113.711 3.35562 113.938 2.80401 114.393 2.35269C114.847 1.90138 115.402 1.67572 116.058 1.67572C116.689 1.67572 117.219 1.90138 117.648 2.35269C118.102 2.80401 118.329 3.35562 118.329 4.00752C118.329 4.65942 118.102 5.21103 117.648 5.66235C117.219 6.11366 116.689 6.33932 116.058 6.33932ZM117.724 9.68658V30.2967H114.279V9.68658H117.724Z" fill="#6200EA"/>
<path d="M125.335 12.5073V24.6552C125.335 25.6582 125.549 26.3728 125.978 26.799C126.407 27.2002 127.152 27.4008 128.212 27.4008H130.748V30.2967H127.644C125.726 30.2967 124.288 29.8579 123.329 28.9804C122.37 28.1028 121.891 26.6611 121.891 24.6552V12.5073H119.203V9.68658H121.891V4.49645H125.335V9.68658H130.748V12.5073H125.335Z" fill="#6200EA"/>
<path d="M150.326 9.68658L137.835 40H134.277L138.365 30.071L130 9.68658H133.823L140.333 26.3853L146.768 9.68658H150.326Z" fill="#6200EA"/>
<path d="M179.208 30.2967L175.764 26.8366C174.477 28.1655 173.102 29.1559 171.638 29.8078C170.175 30.4346 168.522 30.748 166.68 30.748C164.863 30.748 163.248 30.4221 161.835 29.7702C160.447 29.1183 159.362 28.1906 158.58 26.987C157.823 25.7835 157.445 24.3794 157.445 22.7748C157.445 20.9444 157.962 19.3397 158.996 17.9607C160.056 16.5566 161.608 15.4534 163.652 14.6511C162.845 13.6983 162.264 12.8207 161.911 12.0184C161.558 11.216 161.381 10.3385 161.381 9.38571C161.381 8.28249 161.659 7.2921 162.214 6.41454C162.794 5.51191 163.614 4.80986 164.674 4.3084C165.734 3.80694 166.958 3.5562 168.345 3.5562C169.708 3.5562 170.894 3.81947 171.903 4.34601C172.913 4.87254 173.67 5.6122 174.174 6.56498C174.679 7.49269 174.906 8.53322 174.856 9.68658H171.411C171.437 8.65859 171.146 7.85625 170.541 7.27956C169.935 6.67781 169.153 6.37693 168.194 6.37693C167.185 6.37693 166.365 6.66527 165.734 7.24195C165.128 7.79356 164.825 8.50815 164.825 9.38571C164.825 10.1379 165.027 10.865 165.431 11.5671C165.86 12.2691 166.566 13.1341 167.551 14.1621L175.423 22.0226L176.105 20.9695L178.679 16.682H182.388L179.284 22.0226C178.855 22.7748 178.35 23.5646 177.77 24.392L183.713 30.2967H179.208ZM166.68 27.8145C168.043 27.8145 169.266 27.5512 170.351 27.0247C171.462 26.4981 172.509 25.6832 173.493 24.58L165.734 16.8324C162.504 18.061 160.889 20.0042 160.889 22.6619C160.889 24.1412 161.419 25.3698 162.479 26.3477C163.564 27.3255 164.964 27.8145 166.68 27.8145Z" fill="#6200EA"/>
<path d="M205.32 16.7948C206.279 16.9453 207.149 17.3339 207.931 17.9607C208.739 18.5875 209.37 19.3648 209.824 20.2925C210.303 21.2202 210.543 22.2106 210.543 23.2637C210.543 24.5926 210.202 25.7961 209.521 26.8742C208.84 27.9273 207.843 28.7672 206.531 29.3941C205.244 29.9958 203.717 30.2967 201.951 30.2967H192.11V4.08274H201.573C203.364 4.08274 204.891 4.38362 206.152 4.98537C207.414 5.56205 208.36 6.35186 208.991 7.35478C209.622 8.35771 209.937 9.486 209.937 10.7397C209.937 12.2942 209.508 13.5855 208.65 14.6135C207.818 15.6164 206.708 16.3435 205.32 16.7948ZM195.554 15.4033H201.345C202.96 15.4033 204.209 15.0272 205.093 14.275C205.976 13.5228 206.417 12.4822 206.417 11.1534C206.417 9.82449 205.976 8.78395 205.093 8.03176C204.209 7.27956 202.935 6.90347 201.27 6.90347H195.554V15.4033ZM201.648 27.476C203.364 27.476 204.701 27.0748 205.66 26.2725C206.619 25.4701 207.099 24.3544 207.099 22.9252C207.099 21.471 206.594 20.3301 205.585 19.5027C204.575 18.6502 203.225 18.224 201.535 18.224H195.554V27.476H201.648Z" fill="#6200EA"/>
<path d="M231.788 19.2018C231.788 19.8537 231.75 20.5433 231.674 21.2704H215.096C215.222 23.3013 215.916 24.8934 217.177 26.0468C218.464 27.1751 220.016 27.7392 221.833 27.7392C223.322 27.7392 224.558 27.4008 225.542 26.7238C226.552 26.0217 227.258 25.094 227.662 23.9407H231.371C230.816 25.9214 229.706 27.5387 228.04 28.7923C226.375 30.0209 224.306 30.6352 221.833 30.6352C219.865 30.6352 218.098 30.1964 216.534 29.3188C214.995 28.4413 213.784 27.2002 212.9 25.5955C212.017 23.9657 211.576 22.0852 211.576 19.954C211.576 17.8228 212.005 15.9549 212.863 14.3502C213.72 12.7455 214.919 11.5169 216.458 10.6644C218.023 9.78688 219.814 9.3481 221.833 9.3481C223.801 9.3481 225.542 9.77434 227.056 10.6268C228.57 11.4793 229.731 12.6578 230.539 14.1621C231.371 15.6415 231.788 17.3214 231.788 19.2018ZM228.23 18.4873C228.23 17.1835 227.939 16.0677 227.359 15.14C226.779 14.1872 225.984 13.4726 224.975 12.9962C223.99 12.4948 222.893 12.244 221.682 12.244C219.94 12.244 218.452 12.7957 217.215 13.8989C216.004 15.0021 215.31 16.5315 215.134 18.4873H228.23Z" fill="#6200EA"/>
<path d="M251.739 9.68658L239.249 40H235.691L239.778 30.071L231.414 9.68658H235.236L241.747 26.3853L248.181 9.68658H251.739Z" fill="#6200EA"/>
<path d="M261.787 30.6352C259.844 30.6352 258.078 30.1964 256.488 29.3188C254.924 28.4413 253.687 27.2002 252.779 25.5955C251.896 23.9657 251.454 22.0852 251.454 19.954C251.454 17.8479 251.908 15.9925 252.817 14.3878C253.751 12.758 255.012 11.5169 256.602 10.6644C258.192 9.78688 259.971 9.3481 261.939 9.3481C263.907 9.3481 265.686 9.78688 267.276 10.6644C268.865 11.5169 270.114 12.7455 271.023 14.3502C271.956 15.9549 272.423 17.8228 272.423 19.954C272.423 22.0852 271.944 23.9657 270.985 25.5955C270.051 27.2002 268.777 28.4413 267.162 29.3188C265.547 30.1964 263.756 30.6352 261.787 30.6352ZM261.787 27.6264C263.024 27.6264 264.185 27.3381 265.27 26.7614C266.355 26.1847 267.225 25.3197 267.881 24.1663C268.563 23.013 268.903 21.6089 268.903 19.954C268.903 18.2992 268.575 16.8951 267.919 15.7417C267.263 14.5884 266.405 13.7359 265.345 13.1843C264.285 12.6076 263.137 12.3193 261.901 12.3193C260.639 12.3193 259.479 12.6076 258.419 13.1843C257.384 13.7359 256.551 14.5884 255.921 15.7417C255.29 16.8951 254.974 18.2992 254.974 19.954C254.974 21.6339 255.277 23.0506 255.883 24.2039C256.514 25.3573 257.346 26.2223 258.381 26.799C259.415 27.3506 260.551 27.6264 261.787 27.6264Z" fill="#6200EA"/>
<path d="M284.598 9.31049C287.121 9.31049 289.165 10.0752 290.729 11.6047C292.294 13.1091 293.076 15.2904 293.076 18.1488V30.2967H289.67V18.6377C289.67 16.5817 289.152 15.0146 288.118 13.9365C287.083 12.8333 285.67 12.2817 283.879 12.2817C282.062 12.2817 280.611 12.8458 279.526 13.9741C278.466 15.1024 277.936 16.7447 277.936 18.901V30.2967H274.492V9.68658H277.936V12.6201C278.617 11.5671 279.538 10.7522 280.699 10.1755C281.885 9.59883 283.185 9.31049 284.598 9.31049Z" fill="#6200EA"/>
<path d="M294.955 19.9164C294.955 17.8103 295.384 15.9674 296.242 14.3878C297.1 12.7831 298.274 11.542 299.762 10.6644C301.276 9.78688 302.967 9.3481 304.834 9.3481C306.449 9.3481 307.951 9.72419 309.338 10.4764C310.726 11.2035 311.786 12.1688 312.518 13.3723V2.46552H316V30.2967H312.518V26.4229C311.837 27.6515 310.827 28.6669 309.49 29.4693C308.152 30.2466 306.588 30.6352 304.796 30.6352C302.954 30.6352 301.276 30.1839 299.762 29.2812C298.274 28.3786 297.1 27.1124 296.242 25.4827C295.384 23.8529 294.955 21.9975 294.955 19.9164ZM312.518 19.954C312.518 18.3995 312.202 17.0455 311.572 15.8922C310.941 14.7388 310.083 13.8613 308.998 13.2595C307.938 12.6327 306.765 12.3193 305.478 12.3193C304.191 12.3193 303.017 12.6201 301.958 13.2219C300.898 13.8237 300.052 14.7012 299.422 15.8546C298.791 17.0079 298.475 18.3619 298.475 19.9164C298.475 21.496 298.791 22.8751 299.422 24.0535C300.052 25.2069 300.898 26.0969 301.958 26.7238C303.017 27.3255 304.191 27.6264 305.478 27.6264C306.765 27.6264 307.938 27.3255 308.998 26.7238C310.083 26.0969 310.941 25.2069 311.572 24.0535C312.202 22.8751 312.518 21.5086 312.518 19.954Z" fill="#6200EA"/>
<path d="M14.7195 26.1178C14.7195 30.1567 11.4244 33.4308 7.35975 33.4308C3.29507 33.4308 0 30.1567 0 26.1178C0 22.079 3.29507 18.8048 7.35975 18.8048C11.4244 18.8048 14.7195 22.079 14.7195 26.1178Z" fill="#6200EA"/>
<path d="M33.6446 9.40242C33.6446 14.5952 29.4081 18.8048 24.182 18.8048C18.956 18.8048 14.7195 14.5952 14.7195 9.40242C14.7195 4.20961 18.956 0 24.182 0C29.4081 0 33.6446 4.20961 33.6446 9.40242Z" fill="#6200EA"/>
</svg>
