<svg width="283" height="36" viewBox="0 0 283 36" fill="none" xmlns="http://www.w3.org/2000/svg">
<path d="M45.1768 3.67447V27.267H42.0965V3.67447H45.1768Z" fill="#6200EA"/>
<path d="M57.2639 8.37944C59.5205 8.37944 61.3483 9.0677 62.7474 10.4442C64.1465 11.7982 64.846 13.7614 64.846 16.3339V27.267H61.7997V16.7739C61.7997 14.9235 61.3371 13.5132 60.4119 12.5428C59.4867 11.5499 58.223 11.0535 56.6208 11.0535C54.9961 11.0535 53.6985 11.5612 52.7282 12.5767C51.7804 13.5921 51.3066 15.0702 51.3066 17.0109V27.267H48.2263V8.71793H51.3066V11.3581C51.9158 10.4104 52.7395 9.67697 53.7775 9.15796C54.8381 8.63895 56.0002 8.37944 57.2639 8.37944Z" fill="#6200EA"/>
<path d="M75.2257 11.2566H71.3331V27.267H68.2529V11.2566H65.8496V8.71793H68.2529V7.39783C68.2529 5.32177 68.7832 3.80986 69.8438 2.8621C70.9269 1.89177 72.6532 1.4066 75.0226 1.4066V3.97911C73.6687 3.97911 72.7096 4.24989 72.1455 4.79147C71.6039 5.31049 71.3331 6.17927 71.3331 7.39783V8.71793H75.2257V11.2566Z" fill="#6200EA"/>
<path d="M78.2078 5.70539C77.6211 5.70539 77.1247 5.5023 76.7185 5.09611C76.3123 4.68993 76.1092 4.19348 76.1092 3.60677C76.1092 3.02006 76.3123 2.52361 76.7185 2.11742C77.1247 1.71124 77.6211 1.50815 78.2078 1.50815C78.772 1.50815 79.2459 1.71124 79.6295 2.11742C80.0357 2.52361 80.2388 3.02006 80.2388 3.60677C80.2388 4.19348 80.0357 4.68993 79.6295 5.09611C79.2459 5.5023 78.772 5.70539 78.2078 5.70539ZM79.6972 8.71793V27.267H76.6169V8.71793H79.6972Z" fill="#6200EA"/>
<path d="M91.7843 8.37944C94.0409 8.37944 95.8688 9.0677 97.2678 10.4442C98.6669 11.7982 99.3665 13.7614 99.3665 16.3339V27.267H96.3201V16.7739C96.3201 14.9235 95.8575 13.5132 94.9323 12.5428C94.0071 11.5499 92.7434 11.0535 91.1412 11.0535C89.5165 11.0535 88.2189 11.5612 87.2486 12.5767C86.3008 13.5921 85.827 15.0702 85.827 17.0109V27.267H82.7467V8.71793H85.827V11.3581C86.4362 10.4104 87.2599 9.67697 88.2979 9.15796C89.3585 8.63895 90.5207 8.37944 91.7843 8.37944Z" fill="#6200EA"/>
<path d="M103.789 5.70539C103.202 5.70539 102.706 5.5023 102.299 5.09611C101.893 4.68993 101.69 4.19348 101.69 3.60677C101.69 3.02006 101.893 2.52361 102.299 2.11742C102.706 1.71124 103.202 1.50815 103.789 1.50815C104.353 1.50815 104.827 1.71124 105.21 2.11742C105.617 2.52361 105.82 3.02006 105.82 3.60677C105.82 4.19348 105.617 4.68993 105.21 5.09611C104.827 5.5023 104.353 5.70539 103.789 5.70539ZM105.278 8.71793V27.267H102.198V8.71793H105.278Z" fill="#6200EA"/>
<path d="M112.085 11.2566V22.1897C112.085 23.0924 112.277 23.7355 112.66 24.1191C113.044 24.4802 113.71 24.6607 114.657 24.6607H116.925V27.267H114.15C112.435 27.267 111.148 26.8721 110.291 26.0823C109.433 25.2925 109.005 23.995 109.005 22.1897V11.2566H106.601V8.71793H109.005V4.0468H112.085V8.71793H116.925V11.2566H112.085Z" fill="#6200EA"/>
<path d="M134.434 8.71793L123.264 36H120.082L123.738 27.0639L116.257 8.71793H119.676L125.498 23.7468L131.252 8.71793H134.434Z" fill="#6200EA"/>
<path d="M160.263 27.267L157.183 24.1529C156.032 25.3489 154.802 26.2403 153.493 26.827C152.184 27.3911 150.706 27.6732 149.059 27.6732C147.434 27.6732 145.99 27.3799 144.726 26.7931C143.485 26.2064 142.515 25.3715 141.815 24.2883C141.138 23.2052 140.8 21.9415 140.8 20.4973C140.8 18.85 141.263 17.4058 142.188 16.1646C143.136 14.901 144.523 13.9081 146.351 13.186C145.629 12.3285 145.11 11.5387 144.794 10.8165C144.478 10.0944 144.32 9.30464 144.32 8.44714C144.32 7.45424 144.568 6.56289 145.065 5.77309C145.584 4.96072 146.317 4.32888 147.265 3.87756C148.213 3.42624 149.307 3.20058 150.548 3.20058C151.767 3.20058 152.828 3.43752 153.73 3.91141C154.633 4.38529 155.31 5.05098 155.761 5.90848C156.212 6.74342 156.415 7.6799 156.37 8.71793H153.29C153.313 7.79273 153.053 7.07062 152.512 6.55161C151.97 6.01003 151.27 5.73924 150.413 5.73924C149.51 5.73924 148.777 5.99874 148.213 6.51776C147.671 7.01421 147.4 7.65733 147.4 8.44714C147.4 9.12411 147.581 9.77852 147.942 10.4104C148.326 11.0422 148.957 11.8207 149.838 12.7459L156.878 19.8203L157.487 18.8725L159.789 15.0138H163.106L160.331 19.8203C159.947 20.4973 159.496 21.2081 158.977 21.9528L164.291 27.267H160.263ZM149.059 25.033C150.278 25.033 151.372 24.7961 152.342 24.3222C153.335 23.8483 154.272 23.1149 155.152 22.122L148.213 15.1492C145.324 16.2549 143.88 18.0038 143.88 20.3957C143.88 21.7271 144.354 22.8328 145.302 23.7129C146.272 24.593 147.525 25.033 149.059 25.033Z" fill="#6200EA"/>
<path d="M183.614 15.1153C184.471 15.2507 185.25 15.6005 185.949 16.1646C186.671 16.7288 187.236 17.4283 187.642 18.2633C188.071 19.0982 188.285 19.9896 188.285 20.9373C188.285 22.1333 187.98 23.2165 187.371 24.1868C186.762 25.1346 185.87 25.8905 184.697 26.4547C183.546 26.9962 182.181 27.267 180.601 27.267H171.801V3.67447H180.263C181.865 3.67447 183.23 3.94526 184.358 4.48683C185.487 5.00585 186.333 5.71667 186.897 6.61931C187.461 7.52194 187.743 8.5374 187.743 9.66569C187.743 11.0648 187.36 12.2269 186.592 13.1521C185.848 14.0547 184.855 14.7092 183.614 15.1153ZM174.881 13.8629H180.06C181.504 13.8629 182.621 13.5244 183.411 12.8475C184.201 12.1705 184.595 11.234 184.595 10.038C184.595 8.84204 184.201 7.90556 183.411 7.22858C182.621 6.55161 181.481 6.21312 179.992 6.21312H174.881V13.8629ZM180.33 24.7284C181.865 24.7284 183.061 24.3673 183.918 23.6452C184.776 22.9231 185.205 21.9189 185.205 20.6327C185.205 19.3239 184.753 18.2971 183.851 17.5524C182.948 16.7852 181.741 16.4016 180.229 16.4016H174.881V24.7284H180.33Z" fill="#6200EA"/>
<path d="M207.284 17.2817C207.284 17.8684 207.25 18.4889 207.182 19.1433H192.356C192.469 20.9712 193.09 22.4041 194.218 23.4421C195.369 24.4576 196.757 24.9653 198.381 24.9653C199.713 24.9653 200.818 24.6607 201.699 24.0514C202.601 23.4196 203.233 22.5846 203.594 21.5466H206.911C206.415 23.3293 205.422 24.7848 203.933 25.9131C202.443 27.0188 200.593 27.5717 198.381 27.5717C196.621 27.5717 195.042 27.1768 193.643 26.387C192.266 25.5972 191.183 24.4801 190.393 23.0359C189.603 21.5692 189.208 19.8767 189.208 17.9586C189.208 16.0405 189.592 14.3594 190.359 12.9152C191.126 11.471 192.198 10.3652 193.575 9.59799C194.974 8.80819 196.576 8.41329 198.381 8.41329C200.142 8.41329 201.699 8.79691 203.053 9.56415C204.406 10.3314 205.444 11.392 206.167 12.7459C206.911 14.0773 207.284 15.5892 207.284 17.2817ZM204.102 16.6385C204.102 15.4651 203.842 14.4609 203.323 13.626C202.804 12.7685 202.093 12.1254 201.191 11.6966C200.311 11.2453 199.329 11.0196 198.246 11.0196C196.689 11.0196 195.358 11.5161 194.252 12.509C193.169 13.5019 192.548 14.8784 192.39 16.6385H204.102Z" fill="#6200EA"/>
<path d="M225.126 8.71793L213.956 36H210.774L214.43 27.0639L206.949 8.71793H210.368L216.19 23.7468L221.944 8.71793H225.126Z" fill="#6200EA"/>
<path d="M234.112 27.5717C232.374 27.5717 230.795 27.1768 229.373 26.387C227.974 25.5972 226.868 24.4801 226.056 23.0359C225.266 21.5692 224.871 19.8767 224.871 17.9586C224.871 16.0631 225.277 14.3932 226.09 12.949C226.925 11.4822 228.053 10.3652 229.475 9.59799C230.896 8.80819 232.487 8.41329 234.247 8.41329C236.007 8.41329 237.598 8.80819 239.02 9.59799C240.442 10.3652 241.559 11.471 242.371 12.9152C243.206 14.3594 243.623 16.0405 243.623 17.9586C243.623 19.8767 243.195 21.5692 242.337 23.0359C241.502 24.4801 240.363 25.5972 238.918 26.387C237.474 27.1768 235.872 27.5717 234.112 27.5717ZM234.112 24.8638C235.218 24.8638 236.256 24.6043 237.226 24.0852C238.196 23.5662 238.975 22.7877 239.562 21.7497C240.171 20.7117 240.475 19.448 240.475 17.9586C240.475 16.4693 240.182 15.2056 239.595 14.1676C239.009 13.1295 238.241 12.3623 237.294 11.8659C236.346 11.3468 235.319 11.0873 234.213 11.0873C233.085 11.0873 232.047 11.3468 231.099 11.8659C230.174 12.3623 229.429 13.1295 228.865 14.1676C228.301 15.2056 228.019 16.4693 228.019 17.9586C228.019 19.4705 228.29 20.7455 228.831 21.7835C229.396 22.8216 230.14 23.6001 231.066 24.1191C231.991 24.6155 233.006 24.8638 234.112 24.8638Z" fill="#6200EA"/>
<path d="M254.511 8.37944C256.767 8.37944 258.595 9.0677 259.994 10.4442C261.393 11.7982 262.093 13.7614 262.093 16.3339V27.267H259.046V16.7739C259.046 14.9235 258.584 13.5132 257.659 12.5428C256.733 11.5499 255.47 11.0535 253.868 11.0535C252.243 11.0535 250.945 11.5612 249.975 12.5767C249.027 13.5921 248.553 15.0702 248.553 17.0109V27.267H245.473V8.71793H248.553V11.3581C249.163 10.4104 249.986 9.67697 251.024 9.15796C252.085 8.63895 253.247 8.37944 254.511 8.37944Z" fill="#6200EA"/>
<path d="M263.773 17.9248C263.773 16.0293 264.157 14.3707 264.924 12.949C265.692 11.5048 266.741 10.3878 268.072 9.59799C269.426 8.80819 270.938 8.41329 272.608 8.41329C274.052 8.41329 275.395 8.75177 276.636 9.42875C277.877 10.0832 278.825 10.9519 279.479 12.0351V2.21897H282.593V27.267H279.479V23.7806C278.87 24.8863 277.967 25.8003 276.771 26.5224C275.575 27.2219 274.176 27.5717 272.574 27.5717C270.927 27.5717 269.426 27.1655 268.072 26.3531C266.741 25.5407 265.692 24.4012 264.924 22.9344C264.157 21.4676 263.773 19.7977 263.773 17.9248ZM279.479 17.9586C279.479 16.5595 279.197 15.341 278.633 14.303C278.069 13.2649 277.302 12.4751 276.331 11.9336C275.384 11.3694 274.334 11.0873 273.183 11.0873C272.033 11.0873 270.983 11.3581 270.035 11.8997C269.088 12.4413 268.332 13.2311 267.768 14.2691C267.203 15.3071 266.921 16.5257 266.921 17.9248C266.921 19.3464 267.203 20.5875 267.768 21.6481C268.332 22.6862 269.088 23.4873 270.035 24.0514C270.983 24.593 272.033 24.8638 273.183 24.8638C274.334 24.8638 275.384 24.593 276.331 24.0514C277.302 23.4873 278.069 22.6862 278.633 21.6481C279.197 20.5875 279.479 19.3577 279.479 17.9586Z" fill="#6200EA"/>
<path d="M13.1634 23.5061C13.1634 27.141 10.2167 30.0878 6.5817 30.0878C2.94673 30.0878 0 27.141 0 23.5061C0 19.8711 2.94673 16.9244 6.5817 16.9244C10.2167 16.9244 13.1634 19.8711 13.1634 23.5061Z" fill="#6200EA"/>
<path d="M30.0878 8.46218C30.0878 13.1357 26.2991 16.9244 21.6256 16.9244C16.952 16.9244 13.1634 13.1357 13.1634 8.46218C13.1634 3.78865 16.952 0 21.6256 0C26.2991 0 30.0878 3.78865 30.0878 8.46218Z" fill="#6200EA"/>
</svg>
